# xmcd
#
# Track frame offsets: 
#        150
#        16625
#        34551
#        51377
#        71077
#        85353
#        100009
#        113359
#        128284
#        143360
#        161510
#
# Disc length: 2532 seconds
#
# Revision: 0
# Processed by: cddbd v1.5.2PL0 Copyright (c) Steve Scherf et al.
# Submitted via: ExactAudioCopy v1.3
#
DISCID=7709e20b
DTITLE=The Nighthawks - Skank It Up
DYEAR=1980
DGENRE=Blues Rock
TTITLE0=Sophisticated Woman
TTITLE1=Jo' Burg Jive
TTITLE2=Johnny To Bad
TTITLE3=Shanty Town
TTITLE4=Carry Go Bring Come
TTITLE5=Patsy Girl
TTITLE6=White Shoes
TTITLE7=Here Come The Nighthawks
TTITLE8=Blood Is Thicker Than Water
TTITLE9=Cocktail Blues
TTITLE10=Belle Blue
EXTD=
EXTT0=
EXTT1=
EXTT2=
EXTT3=
EXTT4=
EXTT5=
EXTT6=
EXTT7=
EXTT8=
EXTT9=
EXTT10=
PLAYORDER=
